# xmcd CD database file
#
# Track frame offsets:
#	150
#	16355
#	33707
#
# Disc length: 609 seconds
#
# Revision: 1
# Processed by: cddbd v1.5.1PL0 Copyright (c) Steve Scherf et al.
# Submitted via: CDex 1.51
#
DISCID=1e025f03
DTITLE=THE JERRY LEE PHANTOM - monkey-7
DYEAR=1999
DGENRE=Rock
TTITLE0=monkey-7
TTITLE1=勝手にしやがれ
TTITLE2=bird
EXTD=YEAR: 1999
EXTT0=
EXTT1=
EXTT2=
PLAYORDER=
